<?xml version="1.0" encoding="UTF-8" standalone="no"?>
<!-- Created with Inkscape (http://www.inkscape.org/) -->

<svg
   xmlns:dc="http://purl.org/dc/elements/1.1/"
   xmlns:cc="http://creativecommons.org/ns#"
   xmlns:rdf="http://www.w3.org/1999/02/22-rdf-syntax-ns#"
   xmlns:svg="http://www.w3.org/2000/svg"
   xmlns="http://www.w3.org/2000/svg"
   xmlns:sodipodi="http://sodipodi.sourceforge.net/DTD/sodipodi-0.dtd"
   xmlns:inkscape="http://www.inkscape.org/namespaces/inkscape"
   width="128"
   height="128"
   viewBox="0 0 128 128"
   id="svg2"
   version="1.1"
   inkscape:version="0.91 r13725"
   sodipodi:docname="symbol.svg"
   inkscape:export-filename="C:\repos\Translit\res\symbol.png"
   inkscape:export-xdpi="90"
   inkscape:export-ydpi="90">
  <defs
     id="defs4" />
  <sodipodi:namedview
     id="base"
     pagecolor="#ffffff"
     bordercolor="#666666"
     borderopacity="1.0"
     inkscape:pageopacity="0.0"
     inkscape:pageshadow="2"
     inkscape:zoom="4.8945736"
     inkscape:cx="78.385951"
     inkscape:cy="48.70008"
     inkscape:document-units="px"
     inkscape:current-layer="layer1"
     showgrid="false"
     inkscape:window-width="1920"
     inkscape:window-height="1057"
     inkscape:window-x="2728"
     inkscape:window-y="-8"
     inkscape:window-maximized="1"
     units="px"
     showguides="true"
     inkscape:guide-bbox="true">
    <sodipodi:guide
       position="106.2401,16"
       orientation="0,1"
       id="guide4136"
       inkscape:label=""
       inkscape:color="rgb(0,0,255)" />
    <sodipodi:guide
       position="16,65.78714"
       orientation="1,0"
       id="guide4138"
       inkscape:label=""
       inkscape:color="rgb(0,0,255)" />
    <sodipodi:guide
       position="112,70.281913"
       orientation="1,0"
       id="guide4140"
       inkscape:label=""
       inkscape:color="rgb(0,0,255)" />
    <sodipodi:guide
       position="55.98,112"
       orientation="0,1"
       id="guide4142"
       inkscape:label=""
       inkscape:color="rgb(0,0,255)" />
  </sodipodi:namedview>
  <metadata
     id="metadata7">
    <rdf:RDF>
      <cc:Work
         rdf:about="">
        <dc:format>image/svg+xml</dc:format>
        <dc:type
           rdf:resource="http://purl.org/dc/dcmitype/StillImage" />
        <dc:title></dc:title>
      </cc:Work>
    </rdf:RDF>
  </metadata>
  <g
     inkscape:label="Layer 1"
     inkscape:groupmode="layer"
     id="layer1"
     transform="translate(0,-924.36216)">
    <path
       style="fill:#000000;fill-opacity:1;fill-rule:nonzero;stroke:none;stroke-width:1px;stroke-linecap:butt;stroke-linejoin:miter;stroke-opacity:1"
       id="path4238"
       d="m 16.843594,964.80704 c 0.600484,-0.0996 1.16821,-0.31948 1.755417,-0.4733 0.308448,-0.0587 0.621298,-0.15049 0.93751,-0.15789 0.579191,-0.0135 -0.176494,0.0525 0.400716,-0.007 0.391039,-0.0804 0.782307,-0.15142 1.179688,-0.18966 3.577218,-0.16698 7.237944,-0.0314 10.759381,-0.0308 0.59545,0.004 1.190912,0.003 1.786367,0.002 0.596664,3.6e-4 1.193327,4.9e-4 1.789991,9.7e-4 4.582555,-0.003 -12.592966,0.0119 -7.783571,-0.003 3.387755,-0.01 3.455799,-0.0103 9.943298,0.0741 0.177612,0.002 0.271432,0.0972 0.424608,0.16744 0.164076,0.0753 0.226389,0.0822 0.397983,0.12438 0.408036,0.0513 0.71218,0.36832 1.084059,0.52553 0.06835,0.0191 0.13982,0.0293 0.205068,0.0575 0.158648,0.0685 0.365422,0.22234 0.512446,0.30374 0.25794,0.14279 0.523063,0.28173 0.790909,0.4046 0.07501,0.0539 0.144661,0.11643 0.22503,0.16171 0.0671,0.0378 0.14492,0.0523 0.21422,0.0857 0.281451,0.13601 0.551479,0.29226 0.842552,0.40766 0.446312,0.23267 0.897528,0.45701 1.299359,0.76719 0.433115,0.35162 0.838481,0.73206 1.298986,1.04806 0.392277,0.4011 0.881547,0.69061 1.275877,1.08412 0.497332,0.31007 0.838882,0.83506 1.313608,1.16009 0.21815,0.15843 0.366048,0.38053 0.541176,0.57862 0.145992,0.16515 0.299128,0.28002 0.43079,0.46221 0.272585,0.37746 0.50192,0.79375 0.67758,1.22642 0.04106,0.0975 0.0751,0.19828 0.123171,0.29239 0.239272,0.46845 0.06401,0.01 0.2939,0.50072 0.125263,0.26772 0.220664,0.53781 0.361225,0.79928 0.174848,0.5178 0.444967,0.98749 0.694527,1.46856 0.278344,0.56176 0.537098,1.13007 0.81978,1.69077 0.311963,0.57037 0.54035,1.19349 0.749778,1.80992 0.260247,0.64586 0.554544,1.27078 0.778208,1.93304 0.26545,0.65338 0.450493,1.33493 0.663551,2.00709 0.207874,0.63822 0.356548,1.29453 0.486006,1.95325 0.06147,0.5839 0.188512,1.1563 0.251512,1.73998 0.07438,0.62723 0.0641,1.26057 0.06673,1.89134 0.0129,0.57834 0.02221,1.15655 0.01572,1.73502 -0.0064,0.67423 -0.02911,1.34805 -0.02221,2.02249 -0.03102,0.90287 -0.03756,1.80488 -0.02477,2.70843 0.01172,0.81625 0.03143,1.63149 -0.03209,2.44585 -0.0672,0.6508 -0.07642,1.3056 -0.135087,1.95696 -0.0844,0.67377 -0.169611,1.34847 -0.311382,2.01277 -0.108901,0.6346 -0.319266,1.2448 -0.52016,1.8543 -0.213507,0.5525 -0.384671,1.1207 -0.631256,1.6592 -0.341004,0.6483 -0.684443,1.2917 -1.08436,1.9049 -0.410318,0.5723 -0.878245,1.1 -1.418436,1.5479 -0.724249,0.5746 -1.551923,0.9944 -2.372424,1.4066 -1.069259,0.52 -2.12913,1.0592 -3.19578,1.5846 -0.875426,0.417 -1.775918,0.7793 -2.671045,1.151 -0.726173,0.3184 -1.48092,0.5671 -2.236643,0.8027 -0.681707,0.211 -1.362882,0.4225 -2.043884,0.6359 -0.666265,0.2166 -1.364783,0.2277 -2.053169,0.2991 -0.772224,0.099 -1.542096,0.2227 -2.312801,0.3373 -0.716336,0.1091 -1.436877,0.1826 -2.159554,0.2297 -3.463188,0.1669 -6.987411,0 -10.408418,-0.046 -0.120902,0 -0.230507,-0.075 -0.348418,-0.1022 -0.383543,-0.2482 -0.459369,-0.7309 -0.764551,-1.0494 -0.03332,-0.056 -0.06664,-0.1114 -0.09997,-0.1671 -0.03418,-0.027 -0.07818,-0.044 -0.102535,-0.08 -0.04295,-0.064 -0.05978,-0.1423 -0.09383,-0.2114 -0.101829,-0.2065 -0.192662,-0.3974 -0.268113,-0.617 -0.02077,-0.078 -0.03486,-0.1595 -0.0623,-0.236 -0.0174,-0.048 -0.0476,-0.092 -0.07141,-0.137 -0.02206,-0.056 -0.04679,-0.1117 -0.06619,-0.1691 -0.0571,-0.1689 -0.06779,-0.3403 -0.156484,-0.4951 -0.0845,-0.2797 -0.223105,-0.6131 -0.191635,-0.9136 0.01569,-0.1497 0.05851,-0.2954 0.08776,-0.443 0,0 9.619372,0.4013 9.619372,0.4013 l 0,0 c -0.02291,-0.026 -0.04936,-0.1088 -0.06871,-0.079 -0.04759,0.072 0.164989,0.5911 0.194622,0.6886 0.08896,0.3398 0.212663,0.6672 0.332258,0.9967 0.156676,0.2993 0.363943,0.5514 0.564529,0.8185 0.06745,0.1058 0.204229,0.3395 0.327546,0.3961 0.03978,0.019 0.315922,-0.043 0.370503,-0.042 0.107923,0.019 0.436539,0.03 0.32708,0.03 -16.01258,-0.048 -11.92125,-0.04 -8.585426,-0.026 0.744066,-0.01 1.488562,-0.033 2.227989,-0.1235 0.140795,-0.018 0.281591,-0.035 0.422386,-0.052 0.127888,-0.025 0.254697,-0.056 0.383661,-0.075 0.4893,-0.07 0.988993,-0.088 1.465613,-0.2378 0.23468,-0.029 0.466691,-0.08 0.702112,-0.1021 0.438715,-0.041 0.88754,0.01 1.323836,-0.08 0.704962,-0.1207 1.363949,-0.4007 2.059384,-0.5635 0.75195,-0.2497 1.50971,-0.4779 2.26531,-0.7164 0.898418,-0.3816 1.798952,-0.7536 2.711918,-1.0966 1.077613,-0.5085 2.143565,-1.0405 3.22044,-1.5493 0.745289,-0.4102 1.495713,-0.8095 2.219264,-1.2572 0.170391,-0.1204 0.354473,-0.2217 0.516291,-0.3536 0.327267,-0.2669 0.586079,-0.6213 0.884785,-0.918 0.42908,-0.5179 0.742007,-1.1214 1.04425,-1.7218 0.244071,-0.5036 0.410793,-1.027 0.62777,-1.5418 0.191114,-0.5739 0.418555,-1.1403 0.535942,-1.7352 0.119872,-0.637 0.259072,-1.2724 0.296648,-1.92164 0.08089,-0.6428 0.07082,-1.29683 0.164789,-1.93955 0.07839,-0.78522 0.0772,-1.57025 0.07875,-2.35935 0.01279,-0.90363 0.0062,-1.80569 -0.02458,-2.70863 0.0071,-0.67474 -0.01524,-1.34893 -0.01999,-2.02346 -0.0051,-0.57479 0.0069,-1.14928 0.01207,-1.72402 -0.0096,-0.59492 -0.02663,-1.1894 -0.09053,-1.78141 -0.0773,-0.55845 -0.173473,-1.1138 -0.244473,-1.67299 -0.115974,-0.61825 -0.256885,-1.23391 -0.436516,-1.83637 -0.216096,-0.66531 -0.457008,-1.32049 -0.683846,-1.98217 -0.235316,-0.65249 -0.552115,-1.26951 -0.794589,-1.91907 -0.224481,-0.5734 -0.425684,-1.15741 -0.725948,-1.6965 -0.282807,-0.56377 -0.575501,-1.1222 -0.872917,-1.67818 -0.248998,-0.48565 -0.443447,-0.99513 -0.678565,-1.48746 -0.244018,-0.537 -0.497598,-1.06826 -0.785934,-1.5829 -0.215356,-0.34304 -0.407735,-0.70333 -0.698969,-0.9895 -0.312879,-0.29367 -0.571222,-0.6419 -0.917706,-0.90104 -0.403962,-0.42583 -0.869061,-0.7771 -1.313543,-1.15701 -0.439321,-0.32066 -0.831293,-0.70517 -1.275735,-1.01992 -0.415963,-0.341 -0.814471,-0.70842 -1.285127,-0.97283 -0.437858,-0.2181 -0.873944,-0.43912 -1.31573,-0.64746 -0.416095,-0.23338 -0.84378,-0.44647 -1.256221,-0.68498 -0.497202,-0.28303 -1.016128,-0.51075 -1.535853,-0.74175 -0.344005,-0.18801 -0.701552,-0.2709 -1.075427,-0.36237 -0.208442,-0.0704 -0.369772,-0.10875 -0.588618,-0.11494 -0.06798,-0.002 -0.271736,-0.0109 -0.203732,-0.0107 3.017653,0.006 12.53841,0.0362 9.052938,0.0268 -3.715814,-0.0111 -7.431655,-2.4e-4 -11.14748,-0.003 -0.600985,5.7e-4 -1.201969,6.9e-4 -1.802954,5.5e-4 -0.597846,-9.6e-4 -1.195697,-0.003 -1.793542,-3.9e-4 15.939744,0.003 11.591889,0.0277 8.224392,-0.006 -0.390061,-0.002 -0.783633,-0.01 -1.168393,0.066 -0.142944,0.0353 -0.278699,0.10083 -0.42395,0.12467 -0.308761,0.0507 -0.64314,-0.048 -0.952663,0.0252 -0.288624,0.0323 -0.581298,0.0637 -0.862747,0.14005 -0.534276,0.14493 -0.04806,0.0407 -0.58366,0.2195 -0.08233,0.0275 -0.168934,0.0395 -0.253401,0.0592 0,0 -9.544973,-1.29023 -9.544973,-1.29023 z"
       inkscape:connector-curvature="0" />
    <path
       style="fill:#000000;fill-opacity:1;fill-rule:nonzero;stroke:none;stroke-width:1px;stroke-linecap:butt;stroke-linejoin:miter;stroke-opacity:1"
       id="path4240"
       d="m 100.5705,964.68346 c -0.791994,-0.0153 -1.584268,-0.0101 -2.376366,-0.008 -0.550356,0.003 -1.100707,0.006 -1.651063,0.007 -0.412198,0.002 -0.824392,2.5e-4 -1.236587,-4.3e-4 -0.48305,-0.003 -0.966109,-7.3e-4 -1.449162,1.5e-4 -3.674964,0.0182 12.512438,-0.37993 8.820498,-0.01 -0.22643,0.0227 -0.44221,0.0664 -0.67015,0.0746 -0.49518,0.0935 -0.99937,0.23805 -1.46863,0.4298 -0.46504,0.20919 -0.951486,0.34125 -1.421701,0.53935 -0.540696,0.13422 -1.046444,0.3706 -1.564488,0.57192 -0.363219,0.18561 -0.769953,0.26672 -1.139866,0.43413 -0.06886,0.0312 -0.465724,0.25834 -0.537736,0.29921 -0.442345,0.26857 -0.870221,0.55763 -1.278917,0.87682 -0.390008,0.30107 -0.710487,0.67754 -1.042552,1.04001 -0.350066,0.36211 -0.66647,0.74672 -0.975037,1.14589 -0.303765,0.3887 -0.587909,0.79308 -0.853966,1.20912 -0.367714,0.42403 -0.709706,0.87345 -1.028376,1.33683 -0.258244,0.44829 -0.528147,0.8891 -0.786771,1.33633 -0.298529,0.41844 -0.530705,0.87848 -0.802278,1.31383 -0.476315,0.73039 -0.831755,1.5335 -1.203571,2.32169 -0.305458,0.68127 -0.573721,1.37582 -0.818018,2.08141 -0.194681,0.56335 -0.351164,1.13757 -0.500914,1.71443 -0.245833,0.72632 -0.426638,1.46901 -0.532447,2.22879 -0.08015,0.59796 -0.02923,1.20265 -0.08575,1.80121 -0.06796,0.49065 -0.121309,0.98146 -0.14261,1.47648 -0.0797,0.52917 -0.148427,1.05839 -0.182228,1.59281 -0.02132,0.45589 -0.01217,0.91071 -0.06204,1.36462 -0.06883,0.54751 -0.210245,1.08037 -0.294952,1.62567 -0.08404,0.58352 -0.07831,1.17662 -0.07798,1.76516 -7.61e-4,0.51607 0.0055,1.03203 0.01364,1.54805 -1.9e-4,0.46425 -3.26e-4,0.92849 0.0039,1.3928 -0.01316,0.5134 -0.0062,1.02697 -0.01272,1.54042 0.0024,0.45546 0.05718,0.9253 0.220086,1.35199 0.146475,0.525 0.395316,1.01144 0.670722,1.47754 0.294013,0.6159 0.799514,1.0831 1.150166,1.6577 0.37387,0.4681 0.781183,0.9026 1.15239,1.3728 0.32638,0.4045 0.651478,0.8044 1.099923,1.0707 0.464735,0.3262 0.922093,0.6658 1.363232,1.0247 0.446975,0.4445 0.937873,0.8134 1.4475,1.1781 0.584106,0.3165 1.112288,0.7222 1.720221,0.9916 0.698788,0.3543 1.422431,0.6456 2.129697,0.9808 0.442233,0.1965 0.928633,0.1981 1.385858,0.3368 0.450478,0.1552 0.226812,0.085 0.670676,0.2125 0.571335,0.1023 1.092944,0.3663 1.654131,0.5016 0.543484,0.2206 1.081174,0.4595 1.636464,0.6547 0.58695,0.3154 1.25226,0.2882 1.88174,0.4291 0.5577,0.2058 1.14075,0.3078 1.73112,0.3425 0.41233,0.013 0.82487,0 1.23721,-0.01 3.55737,-0.025 -12.105436,-0.5958 -9.12178,0 3.1768,0.632 6.47482,0.036 9.71197,0.079 0.0678,10e-4 0.13027,0.038 0.19649,0.053 0.15222,0.033 0.23274,0.038 0.38702,0.055 0.38544,0.026 0.77211,0.018 1.15809,0.014 3.38965,-0.021 7.61017,0 -8.56053,-0.01 0,0 9.54654,1.5315 9.54654,1.5315 l 0,0 c -3.48625,0 -7.00071,0.052 -10.498451,-0.016 -0.394411,-0.02 -0.788403,-0.053 -1.175415,-0.1363 -0.09709,-0.019 -0.29008,-0.058 -0.388942,-0.069 -0.06342,-0.01 -0.254839,-0.011 -0.19106,-0.011 18.904168,0.046 5.765868,0.032 -0.573883,0.031 -0.41301,-0.011 -0.826855,-0.033 -1.232277,-0.1203 -0.566553,-0.1238 -1.118728,-0.3103 -1.692509,-0.398 -0.662666,-0.1045 -1.279928,-0.3403 -1.900036,-0.5936 -0.548934,-0.222 -1.105183,-0.4305 -1.674502,-0.5901 -0.52494,-0.1988 -1.067225,-0.3322 -1.603524,-0.4952 -0.693077,-0.2086 -1.41549,-0.3257 -2.054841,-0.691 -0.715484,-0.3221 -1.419114,-0.6688 -2.117427,-1.0277 -0.603442,-0.3592 -1.223464,-0.6987 -1.777222,-1.135 -0.503756,-0.3815 -0.955172,-0.8256 -1.463961,-1.201 -0.461744,-0.3405 -0.928279,-0.6755 -1.375445,-1.0356 -0.404702,-0.4023 -0.775813,-0.8359 -1.121751,-1.2912 -0.381889,-0.479 -0.80016,-0.9298 -1.131473,-1.4488 -0.420347,-0.5523 -0.806906,-1.1279 -1.156588,-1.7292 -0.29723,-0.5318 -0.52397,-1.10156 -0.708763,-1.68328 -0.149547,-0.53915 -0.234477,-1.09426 -0.219482,-1.65621 -0.0064,-0.51334 4.88e-4,-1.02681 -0.01288,-1.54012 0.0039,-0.46384 0.0034,-0.92759 0.0016,-1.39136 0.0064,-0.51971 0.0092,-1.03941 0.01416,-1.55907 0.01207,-0.63008 0.03595,-1.25927 0.07374,-1.88843 0.06345,-0.53567 0.203304,-1.05491 0.284976,-1.58611 0.03287,-0.44787 0.004,-0.89961 0.05482,-1.34721 0.04683,-0.52472 0.115675,-1.04684 0.179618,-1.56963 0.03189,-0.50972 0.06955,-1.01973 0.153438,-1.52382 0.06765,-0.60859 0.06554,-1.22494 0.162558,-1.83111 0.10255,-0.80064 0.293022,-1.57644 0.471707,-2.36096 0.170332,-0.59684 0.318681,-1.19882 0.530233,-1.78305 0.262042,-0.73899 0.562037,-1.46175 0.886389,-2.17503 0.374346,-0.81418 0.785258,-1.61002 1.134214,-2.43612 0.09502,-0.15813 0.208597,-0.30524 0.292768,-0.46957 0.152304,-0.29736 0.270418,-0.61584 0.464846,-0.89214 0.391487,-0.48197 -0.16998,0.23017 0.257142,-0.39851 0.03968,-0.0584 0.100616,-0.0996 0.141577,-0.15705 0.162324,-0.22782 0.245604,-0.50436 0.413538,-0.729 0.285619,-0.52878 0.675119,-0.97212 1.007943,-1.46634 0.359395,-0.33752 0.564803,-0.82273 0.877509,-1.20415 0.32626,-0.39757 0.576382,-0.86466 0.972901,-1.19283 0.341381,-0.4061 0.692662,-0.79927 1.059371,-1.18173 0.407534,-0.3736 0.831079,-0.7471 1.315089,-1.01303 0.529295,-0.36207 1.054333,-0.735 1.682217,-0.8984 0.521167,-0.22505 1.048899,-0.42487 1.565284,-0.65788 0.493552,-0.0941 0.911108,-0.3806 1.410318,-0.45925 0.747895,-0.2994 -0.269248,0.11768 0.505294,-0.23417 0.313489,-0.14241 0.668774,-0.16603 0.961329,-0.36121 0.236028,-0.0916 0.440296,-0.10164 0.687004,-0.14623 0.07917,-0.0143 0.155776,-0.0488 0.236187,-0.0498 6.405832,-0.0788 6.562206,-0.0778 9.944343,-0.0724 0.48245,8.9e-4 0.9649,0.003 1.44735,1.5e-4 0.41397,-6.7e-4 0.82795,-0.002 1.24194,-4.2e-4 0.52127,9.6e-4 1.04255,0.004 1.56383,0.007 0.82221,0.003 1.64454,0.007 2.46666,-0.008 0,0 -9.50149,1.52531 -9.50149,1.52531 z"
       inkscape:connector-curvature="0" />
    <path
       style="fill:#000000;fill-opacity:1;fill-rule:nonzero;stroke:none;stroke-width:1px;stroke-linecap:butt;stroke-linejoin:miter;stroke-opacity:1"
       id="path4242"
       d="m 66.544499,953.05973 c -0.06243,0.62245 0.0508,1.25252 0.111464,1.87335 0.05197,0.53668 0.150116,1.06547 0.203205,1.60239 0.05787,0.52874 0.04913,1.06099 0.05333,1.59195 -9.5e-5,0.45386 0.104558,0.89907 0.156879,1.34888 0.02241,0.41961 0.11376,0.82718 0.16415,1.24397 0.03029,0.57935 0.115443,1.15295 0.171051,1.72993 0.04934,0.53448 0.156905,1.06236 0.287603,1.58202 0.09308,0.56312 0.176345,1.12644 0.264407,1.69063 0.08541,0.62839 0.190883,1.2543 0.248431,1.88612 0.04575,0.64536 0.05952,1.2921 0.0568,1.93892 0.06328,0.60943 0.111034,1.21845 0.214641,1.82268 0.0966,0.81931 0.112021,1.6494 0.135556,2.47437 0.0136,0.79549 0.01209,1.59054 0.03617,2.38587 8.29e-4,0.61845 0.01398,1.23667 0.0065,1.85509 -0.01461,0.69114 -0.02151,1.38201 -0.0061,2.07346 0.0125,0.568 0.01953,1.13616 0.01,1.70426 0.0036,0.54621 0.01033,1.09225 0.0033,1.63844 -0.03366,0.75805 -0.03785,1.51624 -0.0327,2.27535 0.02141,0.71254 0.0019,1.42626 0.02458,2.13841 0.04455,0.98371 0.08123,1.9671 0.170801,2.94778 0.06309,1.01514 0.127036,2.02651 0.260728,3.03545 0.08532,0.57695 0.145115,1.15683 0.171945,1.73952 0.01949,0.52544 -0.01108,1.0508 -0.02664,1.57589 -0.0014,0.61964 0.0053,1.2392 0.01841,1.85871 0.02045,0.51251 0.01183,1.02433 -0.01919,1.53603 -0.02647,0.8463 -0.0216,1.693 -0.03554,2.5394 -0.03299,0.8888 0.02616,1.7721 0.101301,2.6565 0.05563,0.7606 0.114177,1.5219 0.117521,2.285 -0.0033,0.6303 0.02105,1.2603 0.03589,1.8903 0.0098,0.4229 0.01203,0.8461 0.01321,1.269 -0.03927,0.3844 0.0616,0.751 0.117809,1.1276 0.05573,0.406 0.06732,0.8161 0.07479,1.2254 0.009,0.432 0.0057,0.8634 -0.01821,1.2948 -0.04705,0.5248 0.05535,1.0379 0.127043,1.5543 0.05895,0.4297 0.07585,0.8632 0.08509,1.2965 0.0059,0.3971 0.0046,0.7941 0.0041,1.1911 -6.02e-4,0.3942 -8.95e-4,0.7883 -0.0011,1.1824 -0.01753,0.4561 -0.0021,0.9127 -0.01144,1.3689 -0.0056,0.4653 0.01031,0.9305 0.0011,1.3956 0.0025,0.4828 -0.0051,0.9654 -0.0022,1.4482 0.0045,0.4358 0.0087,0.8716 0.01086,1.3074 0.0018,0.3968 0.0018,0.7935 0.0019,1.1903 -0.0034,0.3501 -0.02216,0.6912 0.06234,1.0308 0,0 -9.642035,0.1909 -9.642035,0.1909 l 0,0 c -0.064,-0.4051 -0.04997,-0.8125 -0.04852,-1.2217 8.9e-5,-0.3968 1.64e-4,-0.7935 0.0019,-1.1903 0.0021,-0.4358 0.0063,-0.8716 0.01086,-1.3074 0.0026,-0.4828 -0.005,-0.9654 -0.0022,-1.4482 -0.0093,-0.4651 0.0065,-0.9303 0.0011,-1.3956 -0.0093,-0.4564 0.0061,-0.913 -0.01121,-1.3692 1.28e-4,-0.3944 3.55e-4,-0.7887 8.15e-4,-1.1831 3.59e-4,-0.3903 0.0015,-0.7807 -0.0032,-1.171 -0.0069,-0.3986 -0.01968,-0.7973 -0.06434,-1.1938 -0.06075,-0.5576 -0.125135,-1.1143 -0.10561,-1.6768 -0.02282,-0.4248 -0.02345,-0.8493 -0.02547,-1.2747 -0.0077,-0.366 -0.01923,-0.7329 -0.07488,-1.0954 -0.06581,-0.4232 -0.138164,-0.8468 -0.116345,-1.2774 0.0017,-0.4231 0.0048,-0.8462 0.01536,-1.2691 0.01536,-0.6241 0.03967,-1.2486 0.02052,-1.8728 -0.02267,-0.7422 -0.01725,-1.4857 -0.08265,-2.2261 -0.06466,-0.9104 -0.09838,-1.8192 -0.07503,-2.7324 -0.01395,-0.8464 -0.0091,-1.6931 -0.03556,-2.5394 -0.03101,-0.5118 -0.03964,-1.02381 -0.01881,-1.53644 0.01365,-0.61964 0.02119,-1.23932 0.02116,-1.85911 -0.01446,-0.51586 -0.03918,-1.03145 -0.03899,-1.54765 -0.0047,-0.55764 -0.01914,-1.1152 -0.05443,-1.67181 -0.06436,-1.016 -0.138079,-2.0308 -0.215291,-3.04573 -0.08322,-0.99159 -0.137865,-1.98497 -0.23904,-2.97491 -0.06041,-0.73205 -0.03137,-1.46234 -0.022,-2.19614 0.0052,-0.75911 9.53e-4,-1.5173 -0.0327,-2.27535 -0.0069,-0.54619 -3.28e-4,-1.09223 0.0033,-1.63843 -0.0096,-0.56812 -0.0024,-1.13629 0.01,-1.7043 0.01547,-0.69162 0.0086,-1.38266 -0.0055,-2.07398 -0.0067,-0.61838 0.0078,-1.23651 0.0099,-1.85489 0.02448,-0.78718 0.02504,-1.5739 0.0088,-2.36133 -0.01642,-0.78523 -0.0389,-1.57087 -0.188059,-2.34435 -0.09538,-0.65404 -0.177879,-1.31055 -0.2145,-1.97105 -0.01005,-0.61736 -0.0068,-1.23604 -0.06116,-1.85153 -0.06119,-0.61428 -0.160483,-1.22005 -0.262073,-1.82811 -0.08298,-0.53973 -0.168866,-1.0803 -0.276973,-1.61521 -0.122527,-0.56231 -0.226255,-1.13063 -0.260834,-1.70642 -0.06419,-0.56752 -0.153083,-1.13095 -0.215353,-1.69849 -0.06484,-0.42187 -0.16666,-0.83821 -0.175235,-1.26755 -0.05168,-0.48277 -0.14179,-0.96438 -0.126089,-1.45169 -0.0034,-0.50117 -0.01978,-1.0024 -0.0555,-1.50234 -0.05332,-0.54139 -0.164135,-1.07661 -0.185455,-1.6208 -0.04017,-0.65199 -0.11258,-1.30136 -0.170694,-1.95186 0,0 9.6326,0 9.6326,0 z"
       inkscape:connector-curvature="0" />
    <path
       style="fill:#000000;fill-opacity:1;fill-rule:nonzero;stroke:none;stroke-width:1px;stroke-linecap:butt;stroke-linejoin:miter;stroke-opacity:1"
       id="path4246"
       d="m 32.575719,998.60205 c 0.670708,-0.23779 1.329414,-0.4945 1.975353,-0.7953 0.511238,-0.28602 1.037987,-0.53399 1.570877,-0.77477 0.643826,-0.34034 1.337262,-0.55832 2.014922,-0.8148 0.66951,-0.2115 1.32599,-0.47205 2.005329,-0.64961 0.697534,-0.20122 1.373797,-0.47455 2.054923,-0.72711 0.761855,-0.3015 1.514026,-0.62411 2.303149,-0.84627 0.883127,-0.15728 1.745466,-0.40713 2.622655,-0.59157 1.085547,-0.26262 2.172135,-0.51798 3.260225,-0.77091 1.11328,-0.28532 2.246146,-0.47832 3.371177,-0.70743 0.885635,-0.18216 1.745965,-0.46067 2.614681,-0.70858 1.027145,-0.3602 2.088143,-0.59864 3.135505,-0.88838 0.89429,-0.23863 1.782817,-0.5025 2.687202,-0.69985 0.773521,-0.20206 1.564431,-0.32023 2.346861,-0.47976 1.063401,-0.24917 2.137519,-0.44385 3.203434,-0.68297 0.940709,-0.22767 1.895332,-0.39052 2.83509,-0.62117 0.82759,-0.25128 1.674029,-0.42787 2.51227,-0.6368 0.741256,-0.18671 1.497853,-0.30879 2.254526,-0.41154 0.553647,-0.0952 1.10785,-0.20954 1.644086,-0.37833 0.328212,-0.0689 0.620873,-0.2474 0.941777,-0.33881 0.05218,-0.0149 0.493218,-0.10225 0.548476,-0.11334 0.653117,-0.16671 1.280015,-0.41858 1.925449,-0.60886 0.488919,-0.16523 0.982079,-0.32166 1.459614,-0.51747 0.499174,-0.18527 1.016948,-0.30235 1.518191,-0.47872 0.561272,-0.13173 1.105943,-0.31933 1.64376,-0.52729 0.544131,-0.17807 1.084194,-0.36564 1.631268,-0.53655 0.672976,-0.25942 1.36363,-0.47013 2.059273,-0.65738 0.666665,-0.20546 1.323205,-0.44273 1.997824,-0.62191 0.440791,-0.18596 0.856607,-0.33215 1.328043,-0.40693 0.418831,-0.16817 0.854417,-0.27173 1.277404,-0.42536 0.06717,-0.0229 0.132269,-0.0533 0.201515,-0.0686 0.05317,-0.0116 0.109331,-0.002 0.162813,-0.0114 0.374942,-0.0709 -0.05736,-0.0244 0.324778,-0.11676 0.376077,-0.091 -0.129889,0.10971 0.26888,-0.0642 0.358327,-0.21486 0.776698,-0.29173 1.17451,-0.41372 0.06768,-0.0177 0.13381,-0.0435 0.203059,-0.0531 0.05417,-0.008 0.109648,0.008 0.164043,0.002 0.227679,-0.0239 0.456192,-0.13698 0.674887,-0.20139 0,0 9.543042,1.37592 9.543042,1.37592 l 0,0 c -0.2309,0.005 -0.45062,0.0161 -0.66661,0.10892 -0.0645,0.0277 -0.12081,0.0761 -0.18858,0.0942 -0.0639,0.0171 -0.13216,0.006 -0.19823,0.009 -0.20141,0.0192 -0.40212,0.0387 -0.59507,0.10561 -0.0662,0.023 -0.12557,0.0661 -0.19373,0.0825 -0.005,9.7e-4 -0.31219,0.0105 -0.32969,0.0109 -0.19927,0.0945 -0.0997,0.0341 -0.29379,0.18964 -0.0493,0.0244 -0.10884,0.0167 -0.1616,0.0321 -0.19477,0.0566 -0.33702,0.21159 -0.55226,0.18718 -0.24342,0.0459 -0.39668,0.12502 -0.62352,0.19249 -0.21709,0.0645 -0.45945,0.0543 -0.66234,0.17527 -0.17071,0.0884 -0.25835,0.14987 -0.44588,0.18771 -0.30565,0.0617 -0.62918,0.0451 -0.91381,0.20639 -0.666312,0.28415 -1.39604,0.36425 -2.058328,0.66171 -0.66759,0.2146 -1.351348,0.3748 -2.014955,0.60437 -0.527938,0.2194 -1.075391,0.36567 -1.603654,0.57804 -0.558109,0.14141 -1.079472,0.3838 -1.625208,0.56059 -0.25569,0.0559 -0.483904,0.16168 -0.733497,0.23007 -0.260321,0.0713 -0.543948,0.0693 -0.787387,0.2086 -0.582462,0.14227 0.134414,-0.0485 -0.450408,0.15975 -0.07575,0.0269 -0.156917,0.0352 -0.233845,0.0586 -0.279659,0.0848 -0.529294,0.24075 -0.8186,0.29535 -0.765845,0.27458 0.140251,-0.0368 -0.636071,0.18787 -0.429993,0.12442 -0.827167,0.34933 -1.270287,0.43334 -0.212976,0.0916 -0.31238,0.14893 -0.538385,0.19145 -0.315768,0.0594 -0.63852,0.0698 -0.922199,0.25222 -0.165356,0.0569 -0.321993,0.13912 -0.489449,0.18933 -0.09112,0.0273 -0.18798,0.0295 -0.280471,0.0517 -0.326109,0.0778 -0.629288,0.23474 -0.967712,0.26103 -0.747499,0.16609 -1.515969,0.2204 -2.268249,0.36464 -0.8479,0.17581 -1.687132,0.39448 -2.531799,0.58517 -0.298933,0.0957 -0.580366,0.19117 -0.885057,0.26706 -0.667376,0.16625 -1.359025,0.21234 -2.020276,0.40994 -1.044498,0.20444 -2.073496,0.47902 -3.122008,0.66099 -0.763789,0.22179 -1.542125,0.36137 -2.326307,0.4872 -0.920146,0.24221 -1.869133,0.37561 -2.777945,0.66986 -1.032195,0.25383 -2.070663,0.51025 -3.075963,0.85556 -0.426439,0.14029 -0.860566,0.24565 -1.288073,0.37965 -0.453405,0.14213 -0.893442,0.33465 -1.370234,0.39273 -1.13124,0.28705 -2.288587,0.43621 -3.428071,0.68499 -1.058556,0.27347 -2.131537,0.4823 -3.176216,0.80895 -0.862953,0.1915 -1.724162,0.37552 -2.577923,0.60654 -0.805817,0.10514 -1.57575,0.34239 -2.311664,0.69433 -0.670086,0.25705 -1.334551,0.52255 -1.993847,0.80314 -0.665377,0.22192 0.0581,-0.005 -0.622882,0.16398 -0.477841,0.11846 -0.938695,0.31031 -1.411609,0.44539 -0.668051,0.20092 -1.317804,0.46056 -1.972425,0.69992 -0.518451,0.26977 -1.055719,0.48813 -1.57445,0.75613 -0.608296,0.33437 -1.241428,0.64342 -1.898269,0.86343 0,0 -9.572038,-1.13632 -9.572038,-1.13632 z"
       inkscape:connector-curvature="0" />
  </g>
</svg>
